# xmcd
#
# Track frame offsets:
#	150
#	15955
#	33854
#	51324
#	52655
#	69256
#	87655
#	103025
#	121371
#	140642
#	160298
#	184539
#	205824
#	228771
#	254866
#
# Disc length: 3654 seconds
#
# Revision: 0
# Processed by: cddbd v1.5.2PL0 Copyright (c) Steve Scherf et al.
# Submitted via: dBpowerAMP V4.0
#
DISCID=c60e440f
DTITLE=Various Artist - The Other Side: Music From East Nashville
DYEAR=2006
DGENRE=Americana
TTITLE0=Some Things Are - Todd Snider
TTITLE1=Last Good Kiss - Last Train Home
TTITLE2=Rewind - Claire Small
TTITLE3=Poem, John Peel - Jon Langford
TTITLE4=John Peel - Paul Burch
TTITLE5=Closing Door - Dave Coleman
TTITLE6=Don't Bother Me - Elizabeth Cook
TTITLE7=Jackknife - Jon Byrd
TTITLE8=Black Doves - Amelia White
TTITLE9=24 Diamonds - Kevin Gordon
TTITLE10=Ol' Strom - Peter Cooper
TTITLE11=Senselessly Blue - Thad Cockerell
TTITLE12=Wish Me Away - Cheryl Wright
TTITLE13=Orphan - Mack Starks
TTITLE14=Misundercould - Matthew Ryan
EXTD=A compilation of artists living in East Nashville
EXTT0=
EXTT1=
EXTT2=
EXTT3=
EXTT4=
EXTT5=
EXTT6=
EXTT7=
EXTT8=
EXTT9=
EXTT10=
EXTT11=
EXTT12=
EXTT13=
EXTT14=
PLAYORDER=
